<?xml version="1.0" encoding="utf-8"?>
<!-- Generator: Adobe Illustrator 16.0.0, SVG Export Plug-In . SVG Version: 6.00 Build 0)  -->
<!DOCTYPE svg PUBLIC "-//W3C//DTD SVG 1.1//EN" "http://www.w3.org/Graphics/SVG/1.1/DTD/svg11.dtd">
<svg version="1.1" id="Layer_1" xmlns="http://www.w3.org/2000/svg" xmlns:xlink="http://www.w3.org/1999/xlink" x="0px" y="0px"
	 width="512px" height="512px" viewBox="0 0 512 512" enable-background="new 0 0 512 512" xml:space="preserve">
<text transform="matrix(0.9736 -0.2282 0.2282 0.9736 121.0527 288.6719)" font-family="'Thunderstorm'" font-size="138.6271">Jimhome</text>
<text transform="matrix(0.995 -0.1002 0.1002 0.995 31.1797 184.0493)" font-family="'BackbonesRegular'" font-size="52.8344">welcome to</text>
<g>
	<g>
		<g>
			<path d="M270.032,387.023c-0.695-2.424-0.812-5.039-0.739-7.741c1.359-3.314,2.822-6.522,4.124-9.823
				c1.312-3.303,2.431-6.663,3.382-10.202c0.221-0.902,0.443-1.807,0.666-2.717c0.225-0.9,0.394-1.923,0.593-2.886
				c0.095-0.488,0.19-0.979,0.287-1.473c0.062-0.492,0.125-0.988,0.188-1.487c0.141-0.998,0.245-2.004,0.342-3.026
				c0.203-2.052,0.38-4.241,0.317-6.806c-0.008-0.319-0.015-0.641-0.023-0.964c-0.031-0.35-0.063-0.703-0.095-1.058
				c-0.036-0.357-0.072-0.717-0.109-1.08c-0.081-0.431-0.163-0.865-0.245-1.303c-0.346-1.745-0.984-3.49-1.966-5.106
				c-1.469-2.272-3.633-3.926-5.988-4.919c-0.586-0.255-1.198-0.445-1.798-0.645c-0.591-0.176-1.148-0.294-1.723-0.426
				c-1.037-0.197-1.948-0.32-2.834-0.394l-0.333-0.031l-0.073-0.007l0.03,0.004c0.034,0.005,0.017,0.006-0.002,0.005l-0.188-0.002
				l-0.378,0c-0.257,0.009-0.512,0.017-0.766,0.026c-0.53,0.03-1.053,0.059-1.571,0.088c-1.064,0.059-2.17,0.103-3.253,0.039
				c-0.54-0.033-1.074-0.082-1.582-0.174c-0.255-0.041-0.502-0.094-0.741-0.157l-0.178-0.046l-0.087-0.023l0.084-0.066l0.359-0.27
				c0.947-0.703,2.027-1.444,3.149-2.118c-1.55-0.133-1.265-0.923-0.098-1.989c0.576-0.528,1.343-1.12,2.232-1.64
				c1.373-0.831,2.829-1.711,4.322-2.614c1.737-1.093,3.633-2.044,5.462-3.062c1.839-1.003,3.641-2.033,5.37-3.035
				c3.524-1.907,6.643-3.872,8.862-5.785c6.605-3.901,9.665-7.206,4.114-5.129c2.358-1.255,4.033-2,5.347-2.466
				c1.307-0.48,2.23-0.722,3.096-0.954c1.736-0.441,3.224-0.951,7.118-3.071l-2.151,2.466c2.785-0.905,5.971-1.575,9.326-3.369
				c-0.006,0.012,0.225-0.216,0.513-0.449c0.302-0.245,0.705-0.571,1.107-0.897c0.905-0.679,1.811-1.358,1.811-1.358
				c5.256-0.993,9.167-2.623,13.109-4.458c3.948-1.852,7.938-3.819,13.499-5.831c-3.711,1.117-2.984,0.548-1.495-0.328
				c1.489-0.893,3.705-2.21,3.077-2.529c0.917-0.137,2.985-0.938,4.558-1.596c1.584-0.626,2.671-1.113,1.72-0.309
				c4.491-2.343,8.134-5.364,11.459-9.193c3.043-3.613,4.766-6.873,6.519-10.205c0,0,0.019-0.226,0.047-0.564
				c0.002-0.344,0.005-0.802,0.008-1.26c0.021-0.447-0.02-0.908-0.055-1.25c-0.03-0.339-0.05-0.565-0.05-0.565l-0.025-0.564
				c0.014-0.059-0.021-0.078-0.073-0.083l-0.129-0.036l-0.257-0.071c-0.339-0.093-0.673-0.184-1.004-0.274
				c-0.766-0.067-1.487-0.146-2.179-0.237c-0.674-0.055-1.338-0.108-1.994-0.162c-0.644-0.062-1.272-0.136-1.894-0.218
				c-0.631-0.047-1.257-0.094-1.883-0.14c-1.256-0.105-2.519-0.26-3.895-0.221c-1.361,0.012-2.801-0.055-4.283,0.115
				c0,0-0.228,0.221-0.402,0.437c-0.171,0.215-0.343,0.431-0.343,0.431c-3.698,0.874-10.419,2.236-13.753,2.427
				c-4.847,1.026-10.081,2.916-15.252,5.013c-5.176,2.093-10.317,4.387-15.124,6.118c-9.924,1.878-5.143,2.847-13.786,5.735
				c-5.689,1.063-15.062,4.754-18.732,4.647c7.704-2.231,8.241-4.531,16.52-6.345c-3.301,0.177,13.609-4.526,6.073-3.514
				c-15.257,5.979-35.127,9.786-49.079,15.385c0.26-1.14-4.302-0.229-9.698,1.266c-5.377,1.562-11.593,3.676-14.7,4.732
				l-0.558-0.417c-5.493,1.304-9.536,2.356-17.937,5.536c-10.242,3.161-20.283,6.456-29.308,7.87
				c-3.317,0.558-6.676,1.49-9.979,2.555c-3.297,1.081-6.513,2.359-9.409,3.791c-1.446,0.722-2.828,1.426-4.08,2.212
				c-0.625,0.384-1.232,0.757-1.82,1.118c-0.575,0.379-1.11,0.784-1.625,1.156c-2.089,1.445-3.563,2.98-4.583,3.975
				c3.61-1.816,7.185-3.409,10.743-4.897c3.578-1.441,7.118-2.777,10.591-3.96c6.953-2.369,13.579-4.157,19.857-4.24
				c-5.497,1.305-8.374,2.193-10.876,3.186c-2.491,1.021-4.626,2.157-8.533,3.969l4.518-0.721l-3.386,1.517
				c1.989,0.114-2.387,2.21-1.615,2.74c0,0,0.776-0.257,1.94-0.643c1.189-0.376,2.775-0.879,4.362-1.381
				c3.214-1.023,6.457-1.958,6.457-1.958c-7.135,1.438-2.8-0.705-0.998-2.044l6.766-1.695c-1.659,0.119-5.869,1.027-1.133-0.826
				c2.729-0.646,6.183-2.105,9.311-2.482l-4.857,3.067c7.801-3.583,14.837-2.425,22.65-6.012l2.949,0.853l7.666-2.366l-0.708,0.806
				l9.296-2.477c4.917-1.715,5.45-2.662,6.175-3.474c1.911-0.607,3.788-1.203,5.379-1.709c1.599-0.48,2.934-0.805,3.763-0.854
				c0,0-1.055,0.549-2.109,1.098c-1.058,0.541-2.102,1.119-2.102,1.119c0,0,1.048-0.238,2.108-0.438
				c1.057-0.209,2.115-0.417,2.115-0.417c-2.927,0.458,3.291-1.538,4.206-2.192c9.361-2.325,6.604-1.72,12.661-2.5
				c5.86-2.282,13.566-3.149,13.565-4.513c11.224-2.274,22.891-5.471,33.433-8.315c0,0,1.148-0.518,2.297-1.036
				c1.135-0.536,2.27-1.072,2.27-1.072c6.517-1.409,10.928-2.914,15.36-4.464c4.417-1.539,8.826-3.255,15.001-4.788l-0.886,0.598
				c0,0,1.633-0.629,3.266-1.258c0.822-0.331,1.633-0.58,2.249-0.802c0.615-0.212,1.025-0.354,1.025-0.354
				c0.907-0.106,1.746-0.171,2.537-0.245c0.368-0.04,0.727-0.08,1.077-0.118c0.11-0.01,0.217-0.023,0.322-0.041
				c0.358-0.037,0.695-0.144,1.087-0.249c0.758-0.195,1.814-0.478,2.797-0.303c0.14,0.026,0.293,0.046,0.406,0.097
				c-0.037,0.17-0.085,0.35-0.147,0.536c-0.146,0.37-0.383,0.761-0.709,1.128c-0.522,0.771-0.91,1.211-1.21,1.661
				c-0.151,0.223-0.288,0.438-0.42,0.669c-0.062,0.116-0.12,0.227-0.177,0.334c-0.022,0.035-0.01,0.042-0.062,0.102l-0.201,0.22
				c-0.133,0.146-0.259,0.292-0.399,0.429c-2.139,2.243-3.68,4.094-4.92,5.817c-2.3,1.819-5.333,3.256-8.396,4.419
				c-3.066,1.169-6.166,2.081-8.689,3.004c0,0,0.758-0.463,1.515-0.927c0.751-0.468,1.502-0.937,1.502-0.937
				s-1.093,0.256-2.186,0.512c-1.098,0.244-2.195,0.488-2.195,0.488c-3.544,1.513-5.504,2.128-7.719,2.898
				c-2.227,0.773-4.7,1.641-9.522,3.682c-0.432,0.13-0.849,0.255-1.25,0.376c-0.448,0.148-0.879,0.291-1.295,0.427
				c-0.439,0.138-0.77,0.289-1.1,0.435c-0.33,0.148-0.647,0.291-0.952,0.428c-1.215,0.559-2.221,1.071-3.062,1.548
				c-1.685,0.954-2.716,1.762-3.484,2.512c-1.542,1.492-1.982,2.793-4.492,4.546c0,0-0.81,0.27-2.024,0.675
				c-1.211,0.417-2.847,0.922-4.451,1.514c-3.223,1.167-6.446,2.335-6.446,2.335l0.438,0.193c-3.144,2.673-4.35,3.685-6.94,5.04
				c-1.281,0.706-2.926,1.46-5.232,2.739c-1.144,0.657-2.468,1.417-4.023,2.31c-0.773,0.455-1.604,0.944-2.499,1.471
				c-0.896,0.524-1.851,1.096-2.837,1.775l1.321,0.459c-3.035,1.273-4.704,2.511-7.192,4.515c-0.567,0.468-1.151,0.926-1.713,1.426
				c-0.547,0.497-1.121,1.018-1.733,1.574c-1.229,1.086-2.622,2.241-4.474,3.605c-0.933,0.717-2.614,1.787-4.652,3.316
				c-2.054,1.492-4.573,3.318-7.124,5.25l-0.302,0.473l-0.141,0.235l-0.034,0.059c-0.02,0.021-0.025,0.04,0.027,0.044l0.208,0.052
				l1.708,0.408c1.14,0.234,2.314,0.454,3.479,0.598c2.339,0.301,4.7,0.424,6.939,0.276c3.501,0.552,7.395,0.587,10.928,0.472
				c0.873-0.022,1.726-0.044,2.564-0.066c0.799-0.011,1.698-0.015,2.261-0.004c1.274,0.028,2.444,0.075,3.558,0.322
				c1.125,0.251,2.249,0.718,3.171,1.504c0.923,0.779,1.641,1.839,2.094,3.063c0.892,2.481,0.967,5.381,0.517,8.442
				c-0.227,0.912-0.451,1.782-0.617,2.625c-0.204,0.836-0.369,1.641-0.51,2.411c-0.406,1.507-0.653,2.908-0.998,4.078
				c-0.641,2.359-1.266,3.936-2.388,4.241l0.476-1.243c0,0-0.679,0.465-1.358,0.931c-0.68,0.454-1.359,0.908-1.359,0.908
				l1.084,0.812c-2.183,3.895-4.446,9.84-7.042,13.146c0,0-0.02,0.17-0.055,0.469c-0.022,0.304-0.053,0.739-0.091,1.26
				c-0.035,0.515-0.076,1.115-0.119,1.759c-0.013,0.65,0.003,1.348,0.008,2.03c-0.042,1.358,0.202,2.735,0.292,3.721
				c0.038,0.495,0.145,0.907,0.211,1.193c0.066,0.285,0.104,0.447,0.104,0.447c-0.022-0.318-0.045-0.641-0.068-0.966
				c-0.008-0.326,0.037-0.654,0.06-0.986c0.06-0.664,0.138-1.339,0.229-2.021c0.331-1.337,0.609-2.723,1.129-4.041l-0.437,0.174
				c0.334-1.312,0.987-3.546,1.864-5.75c0.863-2.208,1.903-4.392,2.759-5.712l-1.094,3.592c1.99-3.806,1.127-0.28,0.848,0.89
				c-0.471,0.952-0.852,1.761-1.162,2.458c-0.297,0.699-0.497,1.291-0.665,1.799c-0.346,1.016-0.445,1.718-0.482,2.365
				c-0.094,1.287-0.067,2.362-0.381,5.359c-0.131,0.659-0.402,1.631-0.481,2.318c-0.103,0.686-0.237,1.1-0.432,0.616
				c-0.046,1.804,0.311,5.051,1.202,7.806c0.936,2.747,2.43,4.836,3.025,4.637c0.098,0.305,0.108,0.438,0.194,0.719
				c0.69-1.155,1.02-2.86,1.305-4.759c0.238-0.966,0.411-1.964,0.624-2.958c0.154-0.479,0.314-0.976,0.478-1.486
				c0.072-0.238,0.145-0.479,0.219-0.723C269.793,387.5,269.929,387.258,270.032,387.023z"/>
		</g>
	</g>
</g>
</svg>
